<mxfile host="app.diagrams.net" agent="Mozilla/5.0 (Macintosh; Intel Mac OS X 10_15_7) AppleWebKit/605.1.15 (KHTML, like Gecko) Version/18.0.1 Safari/605.1.15" version="24.7.17">
  <diagram name="Page-1" id="pIVF3Hpq_gx-J_RYIVrt">
    <mxGraphModel grid="1" page="0" gridSize="10" guides="1" tooltips="1" connect="1" arrows="1" fold="1" pageScale="1" pageWidth="1169" pageHeight="827" math="0" shadow="0">
      <root>
        <mxCell id="0" />
        <mxCell id="1" parent="0" />
        <mxCell id="zCc-TVtZWJSxZO3lC-mW-48" value="" style="rhombus;whiteSpace=wrap;html=1;" vertex="1" parent="1">
          <mxGeometry x="425" y="320" width="110" height="110" as="geometry" />
        </mxCell>
        <mxCell id="zCc-TVtZWJSxZO3lC-mW-28" style="edgeStyle=orthogonalEdgeStyle;rounded=0;orthogonalLoop=1;jettySize=auto;html=1;entryX=0;entryY=0.5;entryDx=0;entryDy=0;endArrow=none;endFill=0;startArrow=none;startFill=0;" edge="1" parent="1" target="zCc-TVtZWJSxZO3lC-mW-23">
          <mxGeometry relative="1" as="geometry">
            <Array as="points">
              <mxPoint x="200" y="180" />
            </Array>
            <mxPoint x="200" y="180" as="sourcePoint" />
          </mxGeometry>
        </mxCell>
        <mxCell id="zCc-TVtZWJSxZO3lC-mW-57" style="edgeStyle=orthogonalEdgeStyle;rounded=0;orthogonalLoop=1;jettySize=auto;html=1;exitX=0.75;exitY=1;exitDx=0;exitDy=0;entryX=0.5;entryY=0;entryDx=0;entryDy=0;endArrow=none;endFill=0;startArrow=none;startFill=0;" edge="1" parent="1" source="zCc-TVtZWJSxZO3lC-mW-4" target="zCc-TVtZWJSxZO3lC-mW-55">
          <mxGeometry relative="1" as="geometry" />
        </mxCell>
        <mxCell id="zCc-TVtZWJSxZO3lC-mW-61" style="edgeStyle=orthogonalEdgeStyle;rounded=0;orthogonalLoop=1;jettySize=auto;html=1;exitX=0.25;exitY=1;exitDx=0;exitDy=0;entryX=0.5;entryY=0;entryDx=0;entryDy=0;endArrow=none;endFill=0;startArrow=classic;startFill=1;" edge="1" parent="1" source="zCc-TVtZWJSxZO3lC-mW-4" target="zCc-TVtZWJSxZO3lC-mW-54">
          <mxGeometry relative="1" as="geometry" />
        </mxCell>
        <mxCell id="zCc-TVtZWJSxZO3lC-mW-62" style="edgeStyle=orthogonalEdgeStyle;rounded=0;orthogonalLoop=1;jettySize=auto;html=1;entryX=0.5;entryY=0;entryDx=0;entryDy=0;endArrow=none;endFill=0;startArrow=classicThin;startFill=1;" edge="1" parent="1" target="zCc-TVtZWJSxZO3lC-mW-56">
          <mxGeometry relative="1" as="geometry">
            <mxPoint y="230" as="sourcePoint" />
            <Array as="points">
              <mxPoint y="230" />
              <mxPoint x="-70" y="230" />
            </Array>
          </mxGeometry>
        </mxCell>
        <mxCell id="zCc-TVtZWJSxZO3lC-mW-4" value="Person" style="swimlane;whiteSpace=wrap;html=1;" vertex="1" parent="1">
          <mxGeometry y="70" width="200" height="200" as="geometry">
            <mxRectangle x="100" y="150" width="80" height="30" as="alternateBounds" />
          </mxGeometry>
        </mxCell>
        <mxCell id="zCc-TVtZWJSxZO3lC-mW-7" value="&lt;span style=&quot;white-space: normal;&quot;&gt;&lt;u&gt;UserName&lt;/u&gt;&lt;/span&gt;&lt;div style=&quot;white-space: normal;&quot;&gt;Name&lt;/div&gt;&lt;div style=&quot;white-space: normal;&quot;&gt;&lt;span style=&quot;white-space: pre;&quot;&gt;&#x9;F_name&lt;/span&gt;&lt;br&gt;&lt;/div&gt;&lt;div style=&quot;white-space: normal;&quot;&gt;&lt;span style=&quot;white-space: pre;&quot;&gt;&#x9;M_name&lt;/span&gt;&lt;/div&gt;&lt;div style=&quot;white-space: normal;&quot;&gt;&lt;span style=&quot;white-space: pre;&quot;&gt;&#x9;L_name&lt;/span&gt;&lt;/div&gt;&lt;div style=&quot;white-space: normal;&quot;&gt;&lt;span style=&quot;white-space: pre;&quot;&gt;Email&lt;/span&gt;&lt;/div&gt;&lt;div style=&quot;white-space: normal;&quot;&gt;&lt;span style=&quot;white-space: pre;&quot;&gt;{Phone_number}&lt;/span&gt;&lt;/div&gt;&lt;div style=&quot;white-space: normal;&quot;&gt;&lt;span style=&quot;white-space: pre;&quot;&gt;Primary_language&lt;/span&gt;&lt;/div&gt;&lt;div style=&quot;white-space: normal;&quot;&gt;&lt;span style=&quot;white-space: pre;&quot;&gt;{Additional_language}&lt;/span&gt;&lt;/div&gt;&lt;div style=&quot;white-space: normal;&quot;&gt;&lt;span style=&quot;white-space: pre;&quot;&gt;Password&lt;/span&gt;&lt;/div&gt;&lt;div style=&quot;white-space: normal;&quot;&gt;&lt;span style=&quot;white-space: pre;&quot;&gt;Role&lt;/span&gt;&lt;/div&gt;" style="text;html=1;align=left;verticalAlign=middle;resizable=0;points=[];autosize=1;strokeColor=none;fillColor=none;" vertex="1" parent="zCc-TVtZWJSxZO3lC-mW-4">
          <mxGeometry x="10" y="25" width="140" height="170" as="geometry" />
        </mxCell>
        <mxCell id="zCc-TVtZWJSxZO3lC-mW-35" style="edgeStyle=orthogonalEdgeStyle;rounded=0;orthogonalLoop=1;jettySize=auto;html=1;entryX=0;entryY=0.5;entryDx=0;entryDy=0;endArrow=none;endFill=0;shape=link;" edge="1" parent="1" target="zCc-TVtZWJSxZO3lC-mW-24">
          <mxGeometry relative="1" as="geometry">
            <mxPoint x="580" y="190" as="sourcePoint" />
            <Array as="points">
              <mxPoint x="580" y="185" />
            </Array>
          </mxGeometry>
        </mxCell>
        <mxCell id="zCc-TVtZWJSxZO3lC-mW-52" style="edgeStyle=orthogonalEdgeStyle;rounded=0;orthogonalLoop=1;jettySize=auto;html=1;exitX=0.5;exitY=1;exitDx=0;exitDy=0;entryX=0.5;entryY=0;entryDx=0;entryDy=0;endArrow=none;endFill=0;startArrow=classic;startFill=1;" edge="1" parent="1" source="zCc-TVtZWJSxZO3lC-mW-8" target="zCc-TVtZWJSxZO3lC-mW-48">
          <mxGeometry relative="1" as="geometry" />
        </mxCell>
        <mxCell id="zCc-TVtZWJSxZO3lC-mW-8" value="Item" style="swimlane;whiteSpace=wrap;html=1;" vertex="1" parent="1">
          <mxGeometry x="380" y="70" width="200" height="200" as="geometry" />
        </mxCell>
        <mxCell id="zCc-TVtZWJSxZO3lC-mW-21" value="&lt;span style=&quot;&quot;&gt;&lt;u&gt;Item_ID&lt;/u&gt;&lt;/span&gt;&lt;div style=&quot;&quot;&gt;Item_description&lt;/div&gt;&lt;div style=&quot;&quot;&gt;Photo&lt;/div&gt;&lt;div style=&quot;&quot;&gt;Colors&lt;/div&gt;&lt;div style=&quot;&quot;&gt;Material&lt;/div&gt;&lt;div style=&quot;&quot;&gt;Condition&lt;/div&gt;&lt;div style=&quot;&quot;&gt;Item_notes&lt;/div&gt;&lt;div style=&quot;&quot;&gt;Requires_assembly&lt;/div&gt;" style="text;html=1;align=left;verticalAlign=middle;resizable=0;points=[];autosize=1;strokeColor=none;fillColor=none;" vertex="1" parent="zCc-TVtZWJSxZO3lC-mW-8">
          <mxGeometry x="10" y="35" width="130" height="130" as="geometry" />
        </mxCell>
        <mxCell id="zCc-TVtZWJSxZO3lC-mW-39" style="edgeStyle=orthogonalEdgeStyle;rounded=0;orthogonalLoop=1;jettySize=auto;html=1;exitX=1;exitY=0.5;exitDx=0;exitDy=0;entryX=0.5;entryY=1;entryDx=0;entryDy=0;endArrow=none;endFill=0;startArrow=classic;startFill=1;shape=flexArrow;" edge="1" parent="1" source="zCc-TVtZWJSxZO3lC-mW-15" target="zCc-TVtZWJSxZO3lC-mW-27">
          <mxGeometry relative="1" as="geometry" />
        </mxCell>
        <mxCell id="zCc-TVtZWJSxZO3lC-mW-15" value="Order" style="swimlane;whiteSpace=wrap;html=1;" vertex="1" parent="1">
          <mxGeometry y="417.75" width="200" height="215" as="geometry" />
        </mxCell>
        <mxCell id="zCc-TVtZWJSxZO3lC-mW-16" value="&lt;u&gt;Order_ID&lt;/u&gt;&lt;div&gt;Start_date&lt;/div&gt;&lt;div&gt;Delivery_date&lt;/div&gt;&lt;div&gt;Order_notes&lt;/div&gt;" style="text;html=1;align=left;verticalAlign=middle;resizable=0;points=[];autosize=1;strokeColor=none;fillColor=none;" vertex="1" parent="zCc-TVtZWJSxZO3lC-mW-15">
          <mxGeometry x="20" y="40" width="100" height="70" as="geometry" />
        </mxCell>
        <mxCell id="zCc-TVtZWJSxZO3lC-mW-17" value="Locations" style="swimlane;whiteSpace=wrap;html=1;" vertex="1" parent="1">
          <mxGeometry x="800" y="417.75" width="220" height="227.5" as="geometry" />
        </mxCell>
        <mxCell id="zCc-TVtZWJSxZO3lC-mW-18" value="&lt;u&gt;Room_number&lt;/u&gt;&lt;div&gt;&lt;u&gt;Shelf_number&lt;/u&gt;&lt;/div&gt;&lt;div&gt;Floor_area&lt;/div&gt;&lt;div&gt;Shelf_description&lt;/div&gt;" style="text;html=1;align=left;verticalAlign=middle;resizable=0;points=[];autosize=1;strokeColor=none;fillColor=none;" vertex="1" parent="zCc-TVtZWJSxZO3lC-mW-17">
          <mxGeometry x="16" y="45" width="120" height="70" as="geometry" />
        </mxCell>
        <mxCell id="zCc-TVtZWJSxZO3lC-mW-19" value="Categories" style="swimlane;whiteSpace=wrap;html=1;" vertex="1" parent="1">
          <mxGeometry x="810" y="70" width="200" height="200" as="geometry" />
        </mxCell>
        <mxCell id="zCc-TVtZWJSxZO3lC-mW-20" value="&lt;div&gt;&lt;u&gt;Main_category&lt;/u&gt;&lt;/div&gt;&lt;div&gt;&lt;u&gt;Sub_category&lt;/u&gt;&lt;/div&gt;" style="text;html=1;align=left;verticalAlign=middle;resizable=0;points=[];autosize=1;strokeColor=none;fillColor=none;" vertex="1" parent="zCc-TVtZWJSxZO3lC-mW-19">
          <mxGeometry x="6" y="40" width="100" height="40" as="geometry" />
        </mxCell>
        <mxCell id="zCc-TVtZWJSxZO3lC-mW-29" style="edgeStyle=orthogonalEdgeStyle;rounded=0;orthogonalLoop=1;jettySize=auto;html=1;exitX=1;exitY=0.5;exitDx=0;exitDy=0;endArrow=none;endFill=0;shape=link;" edge="1" parent="1" source="zCc-TVtZWJSxZO3lC-mW-23">
          <mxGeometry relative="1" as="geometry">
            <mxPoint x="380" y="179.66666666666663" as="targetPoint" />
          </mxGeometry>
        </mxCell>
        <mxCell id="zCc-TVtZWJSxZO3lC-mW-23" value="Donates" style="rhombus;whiteSpace=wrap;html=1;" vertex="1" parent="1">
          <mxGeometry x="260" y="140" width="80" height="80" as="geometry" />
        </mxCell>
        <mxCell id="IUlhvixeC3II6-p_uCn2-6" style="edgeStyle=orthogonalEdgeStyle;rounded=0;orthogonalLoop=1;jettySize=auto;html=1;exitX=1;exitY=0.5;exitDx=0;exitDy=0;" edge="1" parent="1" source="zCc-TVtZWJSxZO3lC-mW-24">
          <mxGeometry relative="1" as="geometry">
            <mxPoint x="809.9999999999995" y="185.71428571428578" as="targetPoint" />
          </mxGeometry>
        </mxCell>
        <mxCell id="zCc-TVtZWJSxZO3lC-mW-24" value="Has Category" style="rhombus;whiteSpace=wrap;html=1;" vertex="1" parent="1">
          <mxGeometry x="620" y="140" width="90" height="90" as="geometry" />
        </mxCell>
        <mxCell id="zCc-TVtZWJSxZO3lC-mW-25" value="Consists of" style="rhombus;whiteSpace=wrap;html=1;strokeColor=default;rounded=0;perimeterSpacing=0;" vertex="1" parent="1">
          <mxGeometry x="440" y="334" width="80" height="80" as="geometry" />
        </mxCell>
        <mxCell id="IUlhvixeC3II6-p_uCn2-8" style="edgeStyle=orthogonalEdgeStyle;rounded=0;orthogonalLoop=1;jettySize=auto;html=1;exitX=1;exitY=0.5;exitDx=0;exitDy=0;startArrow=none;startFill=0;endArrow=none;endFill=0;" edge="1" parent="1" source="zCc-TVtZWJSxZO3lC-mW-26">
          <mxGeometry relative="1" as="geometry">
            <mxPoint x="799.9999999999995" y="560" as="targetPoint" />
          </mxGeometry>
        </mxCell>
        <mxCell id="zCc-TVtZWJSxZO3lC-mW-26" value="Stored in" style="rhombus;whiteSpace=wrap;html=1;" vertex="1" parent="1">
          <mxGeometry x="650" y="520" width="80" height="80" as="geometry" />
        </mxCell>
        <mxCell id="zCc-TVtZWJSxZO3lC-mW-40" style="edgeStyle=orthogonalEdgeStyle;rounded=0;orthogonalLoop=1;jettySize=auto;html=1;exitX=0.5;exitY=0;exitDx=0;exitDy=0;endArrow=none;endFill=0;" edge="1" parent="1" source="zCc-TVtZWJSxZO3lC-mW-27">
          <mxGeometry relative="1" as="geometry">
            <mxPoint x="380" y="240" as="targetPoint" />
            <Array as="points">
              <mxPoint x="290" y="240" />
              <mxPoint x="380" y="240" />
            </Array>
          </mxGeometry>
        </mxCell>
        <mxCell id="zCc-TVtZWJSxZO3lC-mW-27" value="Contains" style="rhombus;whiteSpace=wrap;html=1;" vertex="1" parent="1">
          <mxGeometry x="250" y="320" width="80" height="80" as="geometry" />
        </mxCell>
        <mxCell id="zCc-TVtZWJSxZO3lC-mW-33" style="edgeStyle=orthogonalEdgeStyle;rounded=0;orthogonalLoop=1;jettySize=auto;html=1;exitX=0.5;exitY=1;exitDx=0;exitDy=0;" edge="1" parent="1" source="zCc-TVtZWJSxZO3lC-mW-25" target="zCc-TVtZWJSxZO3lC-mW-25">
          <mxGeometry relative="1" as="geometry" />
        </mxCell>
        <mxCell id="IUlhvixeC3II6-p_uCn2-7" style="edgeStyle=orthogonalEdgeStyle;rounded=0;orthogonalLoop=1;jettySize=auto;html=1;entryX=0;entryY=0.5;entryDx=0;entryDy=0;shape=link;" edge="1" parent="1" target="zCc-TVtZWJSxZO3lC-mW-26">
          <mxGeometry relative="1" as="geometry">
            <mxPoint x="580" y="560" as="sourcePoint" />
          </mxGeometry>
        </mxCell>
        <mxCell id="zCc-TVtZWJSxZO3lC-mW-49" value="" style="swimlane;startSize=0;" vertex="1" parent="1">
          <mxGeometry x="350" y="490" width="235" height="260" as="geometry" />
        </mxCell>
        <mxCell id="zCc-TVtZWJSxZO3lC-mW-10" value="Pieces" style="swimlane;whiteSpace=wrap;html=1;perimeterSpacing=8;" vertex="1" parent="zCc-TVtZWJSxZO3lC-mW-49">
          <mxGeometry x="9" y="10" width="210" height="240" as="geometry" />
        </mxCell>
        <mxCell id="zCc-TVtZWJSxZO3lC-mW-12" value="Piece_number&lt;div&gt;&lt;br&gt;&lt;/div&gt;&lt;div&gt;Piece_description&lt;/div&gt;&lt;div&gt;Quantitiy&lt;/div&gt;&lt;div&gt;Length&lt;/div&gt;&lt;div&gt;Width&lt;/div&gt;&lt;div&gt;Height&lt;/div&gt;" style="text;html=1;align=left;verticalAlign=middle;resizable=0;points=[];autosize=1;strokeColor=none;fillColor=none;" vertex="1" parent="zCc-TVtZWJSxZO3lC-mW-10">
          <mxGeometry x="12.5" y="30" width="120" height="110" as="geometry" />
        </mxCell>
        <mxCell id="zCc-TVtZWJSxZO3lC-mW-47" value="" style="endArrow=none;dashed=1;html=1;rounded=0;dashPattern=8 8;" edge="1" parent="zCc-TVtZWJSxZO3lC-mW-10">
          <mxGeometry width="50" height="50" relative="1" as="geometry">
            <mxPoint x="12.5" y="55.999999999999986" as="sourcePoint" />
            <mxPoint x="132.5" y="56.499999999999986" as="targetPoint" />
          </mxGeometry>
        </mxCell>
        <mxCell id="zCc-TVtZWJSxZO3lC-mW-51" style="edgeStyle=orthogonalEdgeStyle;rounded=0;orthogonalLoop=1;jettySize=auto;html=1;exitX=0.5;exitY=1;exitDx=0;exitDy=0;entryX=0.559;entryY=-0.009;entryDx=0;entryDy=0;entryPerimeter=0;endArrow=none;endFill=0;shape=link;" edge="1" parent="1" source="zCc-TVtZWJSxZO3lC-mW-48" target="zCc-TVtZWJSxZO3lC-mW-49">
          <mxGeometry relative="1" as="geometry">
            <Array as="points">
              <mxPoint x="480" y="488" />
            </Array>
          </mxGeometry>
        </mxCell>
        <mxCell id="zCc-TVtZWJSxZO3lC-mW-60" style="edgeStyle=orthogonalEdgeStyle;rounded=0;orthogonalLoop=1;jettySize=auto;html=1;exitX=0.5;exitY=1;exitDx=0;exitDy=0;entryX=0.25;entryY=0;entryDx=0;entryDy=0;endArrow=none;endFill=0;shape=link;" edge="1" parent="1" source="zCc-TVtZWJSxZO3lC-mW-54" target="zCc-TVtZWJSxZO3lC-mW-15">
          <mxGeometry relative="1" as="geometry" />
        </mxCell>
        <mxCell id="zCc-TVtZWJSxZO3lC-mW-54" value="Places" style="rhombus;whiteSpace=wrap;html=1;" vertex="1" parent="1">
          <mxGeometry x="10" y="300" width="80" height="80" as="geometry" />
        </mxCell>
        <mxCell id="zCc-TVtZWJSxZO3lC-mW-58" style="edgeStyle=orthogonalEdgeStyle;rounded=0;orthogonalLoop=1;jettySize=auto;html=1;exitX=0.5;exitY=1;exitDx=0;exitDy=0;entryX=0.75;entryY=0;entryDx=0;entryDy=0;endArrow=none;endFill=0;shape=link;" edge="1" parent="1" source="zCc-TVtZWJSxZO3lC-mW-55" target="zCc-TVtZWJSxZO3lC-mW-15">
          <mxGeometry relative="1" as="geometry" />
        </mxCell>
        <mxCell id="zCc-TVtZWJSxZO3lC-mW-55" value="Delivers" style="rhombus;whiteSpace=wrap;html=1;" vertex="1" parent="1">
          <mxGeometry x="110" y="300" width="80" height="80" as="geometry" />
        </mxCell>
        <mxCell id="zCc-TVtZWJSxZO3lC-mW-63" style="edgeStyle=orthogonalEdgeStyle;rounded=0;orthogonalLoop=1;jettySize=auto;html=1;exitX=0.5;exitY=1;exitDx=0;exitDy=0;entryX=0;entryY=0.25;entryDx=0;entryDy=0;endArrow=none;endFill=0;shape=link;" edge="1" parent="1" source="zCc-TVtZWJSxZO3lC-mW-56" target="zCc-TVtZWJSxZO3lC-mW-15">
          <mxGeometry relative="1" as="geometry" />
        </mxCell>
        <mxCell id="zCc-TVtZWJSxZO3lC-mW-56" value="Supervises" style="rhombus;whiteSpace=wrap;html=1;" vertex="1" parent="1">
          <mxGeometry x="-110" y="300" width="80" height="80" as="geometry" />
        </mxCell>
      </root>
    </mxGraphModel>
  </diagram>
</mxfile>
